<svg xmlns="http://www.w3.org/2000/svg" xmlns:svg="http://www.w3.org/2000/svg" id="svg2" width="684.495" height="442.727" version="1.1" viewBox="0 0 641.714 415.056"><defs id="defs4"><marker id="marker9448" orient="auto" refX="0" refY="0" style="overflow:visible"><path id="path9450" style="fill:#000;fill-opacity:1;fill-rule:evenodd;stroke:#000;stroke-width:.625;stroke-linejoin:round;stroke-opacity:1" d="M 8.7185878,4.0337352 -2.2072895,0.01601326 8.7185884,-4.0017078 c -1.7454984,2.3720609 -1.7354408,5.6174519 -6e-7,8.035443 z" transform="matrix(-1.1,0,0,-1.1,-1.1,0)"/></marker><marker id="marker9394" orient="auto" refX="0" refY="0" style="overflow:visible"><path id="path9396" style="fill:#000;fill-opacity:1;fill-rule:evenodd;stroke:#000;stroke-width:.625;stroke-linejoin:round;stroke-opacity:1" d="M 8.7185878,4.0337352 -2.2072895,0.01601326 8.7185884,-4.0017078 c -1.7454984,2.3720609 -1.7354408,5.6174519 -6e-7,8.035443 z" transform="matrix(-1.1,0,0,-1.1,-1.1,0)"/></marker><marker id="DotL" orient="auto" refX="0" refY="0" style="overflow:visible"><path id="path4456" d="m -2.5,-1 c 0,2.76 -2.24,5 -5,5 -2.76,0 -5,-2.24 -5,-5 0,-2.76 2.24,-5 5,-5 2.76,0 5,2.24 5,5 z" style="fill:#000;fill-opacity:1;fill-rule:evenodd;stroke:#000;stroke-width:1pt;stroke-opacity:1" transform="matrix(0.8,0,0,0.8,5.92,0.8)"/></marker><marker id="Arrow2Lend" orient="auto" refX="0" refY="0" style="overflow:visible"><path id="path4416" style="fill:#000;fill-opacity:1;fill-rule:evenodd;stroke:#000;stroke-width:.625;stroke-linejoin:round;stroke-opacity:1" d="M 8.7185878,4.0337352 -2.2072895,0.01601326 8.7185884,-4.0017078 c -1.7454984,2.3720609 -1.7354408,5.6174519 -6e-7,8.035443 z" transform="matrix(-1.1,0,0,-1.1,-1.1,0)"/></marker><marker id="Arrow2Lend-8" orient="auto" refX="0" refY="0" style="overflow:visible"><path id="path4416-9" style="fill:#000;fill-opacity:1;fill-rule:evenodd;stroke:#000;stroke-width:.625;stroke-linejoin:round;stroke-opacity:1" d="M 8.7185878,4.0337352 -2.2072895,0.01601326 8.7185884,-4.0017078 c -1.7454984,2.3720609 -1.7354408,5.6174519 -6e-7,8.035443 z" transform="matrix(-1.1,0,0,-1.1,-1.1,0)"/></marker><marker id="Arrow2Lend-9" orient="auto" refX="0" refY="0" style="overflow:visible"><path id="path4416-4" style="fill:#000;fill-opacity:1;fill-rule:evenodd;stroke:#000;stroke-width:.625;stroke-linejoin:round;stroke-opacity:1" d="M 8.7185878,4.0337352 -2.2072895,0.01601326 8.7185884,-4.0017078 c -1.7454984,2.3720609 -1.7354408,5.6174519 -6e-7,8.035443 z" transform="matrix(-1.1,0,0,-1.1,-1.1,0)"/></marker></defs><metadata id="metadata7"/><g id="layer1" transform="translate(-39.5,-238.52013)"><ellipse style="fill:#b1edb2;fill-opacity:1;stroke:none;stroke-width:1.1189214;stroke-opacity:1" id="path4269-6" cx="380" cy="403.077" rx="99.226" ry="129.583"/><rect style="fill:#ffc6c6;fill-opacity:1;fill-rule:evenodd;stroke:#000;stroke-width:.96389145px;stroke-linecap:butt;stroke-linejoin:miter;stroke-opacity:1" id="rect3343" width="160.036" height="260.086" x="79.982" y="272.344"/><text xml:space="preserve" style="font-style:normal;font-weight:400;font-size:40px;line-height:125%;font-family:sans-serif;letter-spacing:0;word-spacing:0;fill:#000;fill-opacity:1;stroke:none;stroke-width:1px;stroke-linecap:butt;stroke-linejoin:miter;stroke-opacity:1" id="text4145" x="132.803" y="317.88"><tspan id="tspan4147" x="132.803" y="317.88" style="font-size:20px">spike</tspan></text><rect style="fill:none" id="rect4149" width="120" height="60" x="100" y="292.362"/><rect style="fill:none;stroke:#000;stroke-opacity:1" id="rect4151" width="120" height="40" x="100" y="292.362"/><text xml:space="preserve" style="font-style:normal;font-weight:400;font-size:40px;line-height:125%;font-family:sans-serif;letter-spacing:0;word-spacing:0;fill:#000;fill-opacity:1;stroke:none;stroke-width:1px;stroke-linecap:butt;stroke-linejoin:miter;stroke-opacity:1" id="text4145-5" x="111.606" y="377.906"><tspan id="tspan4147-5" x="111.606" y="377.906" style="font-size:20px">evt_other</tspan></text><rect style="fill:none;stroke:#000;stroke-opacity:1" id="rect4151-7" width="120" height="40" x="99.804" y="352.667"/><text xml:space="preserve" style="font-style:normal;font-weight:400;font-size:40px;line-height:125%;font-family:sans-serif;letter-spacing:0;word-spacing:0;fill:#000;fill-opacity:1;stroke:none;stroke-width:1px;stroke-linecap:butt;stroke-linejoin:miter;stroke-opacity:1" id="text4145-5-0" x="117.214" y="437.297"><tspan id="tspan4147-5-7" x="117.214" y="437.297" style="font-size:20px">evt_mon</tspan></text><rect style="fill:none;stroke:#000;stroke-opacity:1" id="rect4151-7-3" width="120" height="40" x="100.109" y="412.634"/><text xml:space="preserve" style="font-style:normal;font-weight:400;font-size:40px;line-height:125%;font-family:sans-serif;letter-spacing:0;word-spacing:0;fill:#000;fill-opacity:1;stroke:none;stroke-width:1px;stroke-linecap:butt;stroke-linejoin:miter;stroke-opacity:1" id="text4145-5-2" x="122.099" y="496.896"><tspan id="tspan4147-5-6" x="122.099" y="496.896" style="font-size:20px">evt_run</tspan></text><rect style="fill:none;stroke:#000;stroke-opacity:1" id="rect4151-7-5" width="120" height="40" x="99.604" y="472.233"/><text xml:space="preserve" style="font-style:normal;font-weight:400;font-size:40px;line-height:125%;font-family:sans-serif;letter-spacing:0;word-spacing:0;fill:#000;fill-opacity:1;stroke:none;stroke-width:1px;stroke-linecap:butt;stroke-linejoin:miter;stroke-opacity:1" id="text4205" x="74.343" y="255.219"><tspan id="tspan4207" x="74.343" y="255.219" style="font-size:22.5px">NeuronGroup G</tspan></text><rect style="fill:#ffc6c6;fill-opacity:1;fill-rule:evenodd;stroke:#000;stroke-width:.96389145px;stroke-linecap:butt;stroke-linejoin:miter;stroke-opacity:1" id="rect3343-1" width="160.036" height="260.086" x="520.696" y="272.452"/><text xml:space="preserve" style="font-style:normal;font-weight:400;font-size:40px;line-height:125%;font-family:sans-serif;letter-spacing:0;word-spacing:0;fill:#000;fill-opacity:1;stroke:none;stroke-width:1px;stroke-linecap:butt;stroke-linejoin:miter;stroke-opacity:1" id="text4145-2" x="573.517" y="317.988"><tspan id="tspan4147-57" x="573.517" y="317.988" style="font-size:20px">spike</tspan></text><rect style="fill:none" id="rect4149-5" width="120" height="60" x="540.714" y="292.47"/><rect style="fill:none;stroke:#000;stroke-opacity:1" id="rect4151-5" width="120" height="40" x="540.714" y="292.47"/><text xml:space="preserve" style="font-style:normal;font-weight:400;font-size:40px;line-height:125%;font-family:sans-serif;letter-spacing:0;word-spacing:0;fill:#000;fill-opacity:1;stroke:none;stroke-width:1px;stroke-linecap:butt;stroke-linejoin:miter;stroke-opacity:1" id="text4205-8" x="525.057" y="255.219"><tspan id="tspan4207-9" x="525.057" y="255.219" style="font-size:22.5px">NeuronGroup</tspan></text><path style="fill:none;stroke:#000;stroke-width:1.1189214;stroke-opacity:1" id="path4269" d="m 380,273.13672 a 99.22625,129.58339 0 0 0 -70.98047,39.2168 l 142.0918,0 A 99.22625,129.58339 0 0 0 380,273.13672 Z m -91.42383,79.23437 a 99.22625,129.58339 0 0 0 -6.36328,29.26758 l 195.5332,0 a 99.22625,129.58339 0 0 0 -6.42578,-29.26758 l -182.74414,0 z m -6.61133,69.28516 a 99.22625,129.58339 0 0 0 6.63672,30.69727 l 182.8711,0 a 99.22625,129.58339 0 0 0 6.59765,-30.69727 l -196.10547,0 z m 26.61524,70.71484 A 99.22625,129.58339 0 0 0 380,532.30273 99.22625,129.58339 0 0 0 451.51758,492.37109 l -142.9375,0 z"/><text xml:space="preserve" style="font-style:normal;font-weight:400;font-size:40px;line-height:125%;font-family:sans-serif;letter-spacing:0;word-spacing:0;fill:#000;fill-opacity:1;stroke:none;stroke-width:1px;stroke-linecap:butt;stroke-linejoin:miter;stroke-opacity:1" id="text4355" x="326.195" y="255.219"><tspan id="tspan4357" x="326.195" y="255.219" style="font-size:22.5px">Synapses</tspan></text><text xml:space="preserve" style="font-style:normal;font-weight:400;font-size:40px;line-height:125%;font-family:sans-serif;letter-spacing:0;word-spacing:0;fill:#000;fill-opacity:1;stroke:none;stroke-width:1px;stroke-linecap:butt;stroke-linejoin:miter;stroke-opacity:1" id="text4359" x="363.235" y="338.076"><tspan id="tspan4361" x="363.235" y="338.076" style="font-size:20px;stroke:none;stroke-opacity:1">pre</tspan></text><text xml:space="preserve" style="font-style:normal;font-weight:400;font-size:40px;line-height:125%;font-family:sans-serif;letter-spacing:0;word-spacing:0;fill:#000;fill-opacity:1;stroke:none;stroke-width:1px;stroke-linecap:butt;stroke-linejoin:miter;stroke-opacity:1" id="text4359-9" x="357.752" y="407.311"><tspan id="tspan4361-1" x="357.752" y="407.311" style="font-size:20px">post</tspan></text><text xml:space="preserve" style="font-style:normal;font-weight:400;font-size:40px;line-height:125%;font-family:sans-serif;letter-spacing:0;word-spacing:0;fill:#000;fill-opacity:1;stroke:none;stroke-width:1px;stroke-linecap:butt;stroke-linejoin:miter;stroke-opacity:1" id="text4359-5" x="352.815" y="478.026"><tspan id="tspan4361-6" x="352.815" y="478.026" style="font-size:20px">other</tspan></text><path style="fill:none;fill-rule:evenodd;stroke:#000;stroke-width:1px;stroke-linecap:butt;stroke-linejoin:miter;stroke-opacity:1;marker-end:url(#Arrow2Lend)" id="path4389" d="m 219.28571,313.07649 c 0,0 30.71089,19.83088 101.42858,20 175.00404,0.41851 201.42857,-20.71429 201.42857,-20.71429"/><path style="fill:none;fill-rule:evenodd;stroke:#000;stroke-width:1px;stroke-linecap:butt;stroke-linejoin:miter;stroke-opacity:1;marker-end:url(#Arrow2Lend-8)" id="path4389-8" d="m 539.98855,332.66301 c 0,0 -7.85531,72.35649 -100.00001,71.42857 C 279.9886,402.48034 241.41711,384.80586 241.41711,384.80586"/><path style="fill:none;fill-rule:evenodd;stroke:#000;stroke-width:1px;stroke-linecap:butt;stroke-linejoin:miter;stroke-opacity:1;marker-end:url(#Arrow2Lend-9)" id="path4389-6" d="m 219.29717,391.94872 c 0,0 15.71081,81.56167 101.42857,81.42857 157.14699,-0.24401 198.57143,-20 198.57143,-20"/><path style="fill:none;fill-rule:evenodd;stroke:#000;stroke-width:1px;stroke-linecap:butt;stroke-linejoin:miter;stroke-opacity:1;marker-end:url(#marker9394)" id="path9392" d="m 160,511.64792 c 0,0 1.42857,100.71428 -30.71429,100.71428 -32.142853,0 -28.57142,-80 -28.57142,-80"/><rect style="fill:#b1b1ff;fill-opacity:1;stroke:#000;stroke-opacity:1" id="rect9440" width="170" height="80.714" x="250.49" y="572.362"/><text xml:space="preserve" style="font-style:normal;font-weight:400;font-size:40px;line-height:125%;font-family:sans-serif;letter-spacing:0;word-spacing:0;fill:#000;fill-opacity:1;stroke:none;stroke-width:1px;stroke-linecap:butt;stroke-linejoin:miter;stroke-opacity:1" id="text9442" x="259.36" y="621.107"><tspan id="tspan9444" x="259.36" y="621.107" style="font-size:22.5px">EventMonitor</tspan></text><path style="fill:none;fill-rule:evenodd;stroke:#000;stroke-width:1px;stroke-linecap:butt;stroke-linejoin:miter;stroke-opacity:1;marker-end:url(#marker9448)" id="path9446" d="m 220,451.64792 c 0,0 101.42857,50 100.71429,120"/><rect style="fill:#ffb1ff;fill-opacity:1;stroke:#000;stroke-opacity:1" id="rect9500" width="180.714" height="51.429" x="40" y="582.362"/><text xml:space="preserve" style="font-style:normal;font-weight:400;font-size:40px;line-height:125%;font-family:sans-serif;letter-spacing:0;word-spacing:0;fill:#000;fill-opacity:1;stroke:none;stroke-width:1px;stroke-linecap:butt;stroke-linejoin:miter;stroke-opacity:1" id="text9502" x="50.714" y="615.219"><tspan id="tspan9504" x="50.714" y="615.219" style="font-size:20px">G.run_on_event</tspan></text></g></svg>