<svg xmlns="http://www.w3.org/2000/svg" xmlns:xlink="http://www.w3.org/1999/xlink/" height="3em" viewBox="-12.5 -1 78 17"><defs><linearGradient id="gradient_to_transparent_grey" x1="0" x2="100%" y1="0" y2="0"><stop offset="0" stop-color="#fff" stop-opacity="0"/><stop offset=".5" stop-color="#222" stop-opacity="1"/><stop offset="1" stop-color="#222" stop-opacity="1"/></linearGradient></defs><g transform="translate(-10.0,0)"><rect width="10" height="15" x="-3" y="0" fill="url(#gradient_to_transparent_grey)" stroke="url(#gradient_to_transparent_grey)" stroke-width="1"/><g transform="translate(-3,0)"><ellipse cx="10" cy="7.5" fill="#000" stroke="#000" stroke-width="1" rx=".5" ry="7.5"/></g></g><line x1="-3" x2="0" y1="7.5" y2="7.5" stroke="#000" stroke-width="1"/><g transform="translate(0.0,0)"><ellipse cx="0" cy="7.5" fill="#00f" stroke="#00f" stroke-width="1" rx=".5" ry="5"/><rect width="10" height="10" x="0" y="2.5" fill="#00f" stroke="#00f" stroke-width="1"/><ellipse cx="10" cy="7.5" fill="#00008b" stroke="#00008b" stroke-width="1" rx=".5" ry="5"/></g><line x1="10" x2="13" y1="7.5" y2="7.5" stroke="#000" stroke-width="1"/><g transform="translate(13.0,0)"><ellipse cx="0" cy="7.5" fill="#00f" stroke="#00f" stroke-width="1" rx=".5" ry="5"/><rect width="10" height="10" x="0" y="2.5" fill="#00f" stroke="#00f" stroke-width="1"/><ellipse cx="10" cy="7.5" fill="#00008b" stroke="#00008b" stroke-width="1" rx=".5" ry="5"/></g><line x1="23" x2="26" y1="7.5" y2="7.5" stroke="#000" stroke-width="1"/><g transform="translate(26.0,0)"><ellipse cx="0" cy="7.5" fill="#00f" stroke="#00f" stroke-width="1" rx=".5" ry="5"/><rect width="10" height="10" x="0" y="2.5" fill="#00f" stroke="#00f" stroke-width="1"/><ellipse cx="10" cy="7.5" fill="#00008b" stroke="#00008b" stroke-width="1" rx=".5" ry="5"/></g><line x1="36" x2="39" y1="7.5" y2="7.5" stroke="#000" stroke-width="1"/><g transform="translate(39.0,0)"><ellipse cx="0" cy="7.5" fill="#00f" stroke="#00f" stroke-width="1" rx=".5" ry="5"/><rect width="10" height="10" x="0" y="2.5" fill="#00f" stroke="#00f" stroke-width="1"/><ellipse cx="10" cy="7.5" fill="#00008b" stroke="#00008b" stroke-width="1" rx=".5" ry="5"/></g><line x1="49" x2="52" y1="7.5" y2="7.5" stroke="#000" stroke-width="1"/><g transform="translate(52.0,0)"><ellipse cx="0" cy="7.5" fill="#00f" stroke="#00f" stroke-width="1" rx=".5" ry="5"/><rect width="10" height="10" x="0" y="2.5" fill="#00f" stroke="#00f" stroke-width="1"/><ellipse cx="10" cy="7.5" fill="#00008b" stroke="#00008b" stroke-width="1" rx=".5" ry="5"/></g></svg>